<?xml version="1.0" standalone="no"?>
<!DOCTYPE svg PUBLIC "-//W3C//DTD SVG 20010904//EN"
 "http://www.w3.org/TR/2001/REC-SVG-20010904/DTD/svg10.dtd">
<svg version="1.0" xmlns="http://www.w3.org/2000/svg"
 width="500.000000pt" height="500.000000pt" viewBox="0 0 500.000000 500.000000"
 preserveAspectRatio="xMidYMid meet">
<metadata>
Created by potrace 1.11, written by Peter Selinger 2001-2013
</metadata>
<g transform="translate(0.000000,500.000000) scale(0.100000,-0.100000)"
fill="#000000" stroke="none">
<path d="M3627 4864 c-1 -1 -33 -4 -72 -7 -191 -17 -361 -98 -486 -234 -39
-42 -43 -44 -68 -33 -69 32 -205 70 -336 94 -172 32 -397 26 -565 -13 -103
-24 -244 -68 -284 -88 -26 -13 -30 -13 -50 5 -54 50 -191 99 -303 108 -37 3
-79 6 -93 8 -66 8 -302 -30 -335 -54 -5 -4 -22 -10 -37 -14 -43 -10 -160 -82
-234 -144 -130 -110 -211 -234 -240 -374 -15 -70 -21 -236 -10 -288 3 -13 8
-42 11 -65 14 -97 54 -228 111 -363 38 -91 54 -111 54 -72 0 35 17 22 23 -17
13 -83 20 -110 48 -197 17 -50 39 -106 50 -124 10 -18 19 -49 19 -69 0 -49 46
-252 77 -338 14 -38 46 -110 70 -159 25 -49 47 -98 49 -110 2 -12 4 -136 3
-276 -1 -140 -1 -336 -2 -435 -1 -168 7 -367 17 -425 3 -14 10 -59 16 -100 25
-161 90 -377 154 -512 57 -121 138 -226 240 -311 35 -29 48 -36 42 -22 -4 11
-16 57 -25 102 l-18 82 77 -72 c42 -40 105 -87 138 -105 l62 -33 -39 78 c-22
43 -51 110 -65 150 -25 72 -81 321 -73 329 2 2 21 -21 42 -52 21 -30 59 -74
83 -97 25 -23 53 -51 64 -62 19 -19 19 -18 -2 34 -19 49 -63 207 -75 270 -38
199 -49 310 -49 496 0 148 3 194 26 409 l12 109 44 -47 44 -47 -7 43 c-4 24
-9 50 -10 59 -2 9 -6 34 -9 55 -4 22 -9 48 -13 59 -3 11 21 -5 62 -42 37 -34
115 -97 174 -140 l108 -78 28 -92 c30 -101 39 -113 103 -138 l43 -18 -28 -29
c-24 -26 -184 -166 -252 -221 -13 -10 -45 -32 -72 -48 -49 -31 -55 -43 -51
-104 5 -59 6 -60 105 -106 16 -7 48 -13 71 -12 24 1 61 -4 82 -12 21 -7 54
-11 74 -9 55 7 77 -2 89 -38 11 -36 39 -179 47 -243 18 -144 85 -336 131 -378
27 -24 127 -26 171 -3 29 15 32 21 33 64 2 125 13 206 54 417 3 17 7 39 9 50
14 84 18 95 41 95 18 0 27 -13 50 -67 23 -54 48 -86 126 -165 53 -55 134 -152
180 -217 46 -65 88 -117 94 -115 5 2 25 5 43 8 18 2 49 13 70 24 36 18 37 20
40 83 3 67 -13 132 -76 309 -17 47 -34 110 -38 140 -4 30 -8 62 -9 70 -4 25
46 50 98 50 45 0 85 22 88 50 6 44 2 58 -19 82 -29 32 -22 48 22 48 18 0 48
10 67 23 28 19 35 30 37 64 3 34 -2 47 -27 76 -23 25 -30 43 -29 69 1 29 -7
44 -40 79 -93 101 -135 159 -206 290 -62 115 -63 162 -7 222 57 61 76 83 102
122 31 45 39 44 28 -2 -17 -73 -12 -82 22 -43 71 84 201 295 234 383 10 26 21
47 24 47 4 0 7 -145 7 -322 0 -383 5 -452 54 -688 35 -169 113 -374 190 -496
11 -18 10 -30 -6 -80 -35 -114 -150 -320 -224 -403 -29 -33 -38 -47 -22 -38 4
3 23 8 44 11 54 8 139 43 178 71 19 14 36 25 38 25 2 0 -6 -17 -16 -37 -33
-64 -50 -105 -66 -169 -17 -66 -21 -107 -8 -88 4 6 43 37 87 69 101 74 162
132 211 198 l39 53 85 -43 c47 -24 106 -47 132 -52 46 -8 47 -8 36 13 -6 11
-21 35 -34 51 -12 17 -43 69 -69 117 -46 87 -46 88 -36 145 14 81 20 127 27
207 3 38 9 98 14 135 8 64 6 464 -4 606 -13 190 -20 439 -30 1075 -4 186 -2
209 16 255 25 63 54 158 63 210 7 37 9 38 15 15 7 -23 10 -19 39 44 136 291
180 615 115 846 -37 129 -147 291 -263 387 -79 64 -237 145 -341 172 -62 17
-235 42 -243 35z m-587 -2509 c0 -10 -43 -121 -50 -128 -4 -5 -30 -1 -58 9
l-51 18 64 43 c35 23 66 47 70 53 6 10 25 14 25 5z m-996 -185 c61 -16 137
-31 169 -32 58 -2 80 -11 53 -21 -9 -4 -16 -23 -18 -49 -3 -43 -3 -43 -49 -49
-25 -4 -55 -12 -66 -19 -25 -16 -63 -72 -63 -93 0 -56 -64 45 -136 217 -40 93
-39 90 -17 82 9 -4 66 -20 127 -36z m966 -640 c0 -5 17 -35 38 -67 68 -102 92
-143 86 -143 -4 0 -40 34 -81 76 -71 71 -74 77 -69 112 3 20 5 38 6 40 0 7 20
-10 20 -18z"/>
</g>
</svg>
